<svg width="44" height="44" viewBox="0 0 44 44" fill="none" xmlns="http://www.w3.org/2000/svg">
<rect width="44" height="44" rx="5.1" fill="#777777"/>
<path d="M34 16V31C34 31.4141 33.9038 31.8008 33.7115 32.1602C33.5192 32.5195 33.2548 32.8359 32.9183 33.1094C32.5817 33.3828 32.1875 33.5977 31.7356 33.7539C31.2837 33.9102 30.8077 33.9922 30.3077 34H13.6923C13.1827 34 12.7067 33.9219 12.2644 33.7656C11.8221 33.6094 11.4327 33.3945 11.0962 33.1211C10.7596 32.8477 10.4952 32.5312 10.3029 32.1719C10.1106 31.8125 10.0096 31.4219 10 31V16H13.6923V14.5C13.6923 13.8828 13.8365 13.3008 14.125 12.7539C14.4135 12.207 14.8125 11.7305 15.3221 11.3242C15.8317 10.918 16.4183 10.5977 17.0817 10.3633C17.7452 10.1289 18.4615 10.0078 19.2308 10C20.2308 10 21.1587 10.2031 22.0144 10.6094C22.8702 10.2031 23.7885 10 24.7692 10C25.5288 10 26.2452 10.1172 26.9183 10.3516C27.5913 10.5859 28.1779 10.9102 28.6779 11.3242C29.1779 11.7383 29.5721 12.2148 29.8606 12.7539C30.149 13.293 30.2981 13.875 30.3077 14.5V16H34ZM28.4615 14.5C28.4615 14.0938 28.3654 13.707 28.1731 13.3398C27.9808 12.9727 27.7163 12.6562 27.3798 12.3906C27.0433 12.125 26.649 11.9102 26.1971 11.7461C25.7452 11.582 25.2692 11.5 24.7692 11.5C24.3365 11.5 23.9279 11.5586 23.5433 11.6758C23.8221 11.957 24.0433 12.2344 24.2067 12.5078C24.3702 12.7812 24.4904 13.0547 24.5673 13.3281C24.6442 13.6016 24.6971 13.8789 24.726 14.1602C24.7548 14.4414 24.7692 14.7422 24.7692 15.0625V16H28.4615V14.5ZM15.5385 16H22.9231V14.5C22.9231 14.0938 22.8269 13.707 22.6346 13.3398C22.4423 12.9727 22.1779 12.6562 21.8413 12.3906C21.5048 12.125 21.1106 11.9102 20.6587 11.7461C20.2067 11.582 19.7308 11.5 19.2308 11.5C18.7212 11.5 18.2452 11.5781 17.8029 11.7344C17.3606 11.8906 16.9712 12.1055 16.6346 12.3789C16.2981 12.6523 16.0337 12.9727 15.8413 13.3398C15.649 13.707 15.5481 14.0938 15.5385 14.5V16ZM27.1058 32.5C26.7788 32.0312 26.6154 31.5312 26.6154 31V17.5H11.8462V31C11.8462 31.2109 11.8942 31.4062 11.9904 31.5859C12.0865 31.7656 12.2163 31.9219 12.3798 32.0547C12.5433 32.1875 12.7404 32.2969 12.9712 32.3828C13.2019 32.4688 13.4423 32.5078 13.6923 32.5H27.1058ZM32.1538 17.5H28.4615V31C28.4615 31.2109 28.5096 31.4062 28.6058 31.5859C28.7019 31.7656 28.8317 31.9219 28.9952 32.0547C29.1587 32.1875 29.3558 32.2969 29.5865 32.3828C29.8173 32.4688 30.0577 32.5078 30.3077 32.5C30.5673 32.5 30.8077 32.4609 31.0288 32.3828C31.25 32.3047 31.4423 32.1992 31.6058 32.0664C31.7692 31.9336 31.9038 31.7734 32.0096 31.5859C32.1154 31.3984 32.1635 31.2031 32.1538 31V17.5Z" fill="white"/>
</svg>
