<svg width="44" height="44" viewBox="0 0 44 44" fill="none" xmlns="http://www.w3.org/2000/svg">
<rect width="44" height="44" rx="5.1" fill="#777777"/>
<rect width="24" height="24" transform="translate(10 10)" fill="#777777"/>
<path fill-rule="evenodd" clip-rule="evenodd" d="M22.0003 11.998L15.7535 12.3885C14.2657 12.4815 12.9531 13.394 12.3477 14.7561L11.8018 15.9844C11.213 17.3093 11.3872 18.8491 12.2571 20.009L12.5154 20.3534L12.8712 28.1816C12.9683 30.3179 14.7285 32 16.8671 32H27.1336C29.2721 32 31.0324 30.3179 31.1295 28.1816L31.4788 20.4965C32.4301 19.6072 32.7807 18.2199 32.324 16.964L31.6115 15.0046C31.0678 13.5095 29.6897 12.4786 28.1019 12.3794L22.0003 11.998ZM14.8691 28.0908L14.5663 21.4287C15.4229 21.5296 16.307 21.3307 17.055 20.832L17.1589 20.7628C17.7236 20.3863 18.4468 20.3413 19.0539 20.6448L20.2115 21.2236C21.3376 21.7867 22.6631 21.7867 23.7892 21.2236L24.9467 20.6448C25.5538 20.3413 26.277 20.3863 26.8418 20.7628L26.9456 20.832C27.6936 21.3307 28.5778 21.5296 29.4343 21.4287L29.1315 28.0908C29.083 29.159 28.2028 30 27.1336 30H25.0871L25.2893 27.5744C25.4496 25.6503 23.9311 24 22.0003 24C20.0695 24 18.551 25.6503 18.7114 27.5744L18.9135 30H16.8671C15.7978 30 14.9177 29.159 14.8691 28.0908ZM28.055 19.1679C28.6275 19.5496 29.3732 19.5496 29.9456 19.1679C30.4425 18.8367 30.6485 18.2087 30.4444 17.6475L29.7319 15.6881C29.4601 14.9405 28.771 14.4251 27.9771 14.3755L22.0003 14.0019L15.8782 14.3846C15.1344 14.4311 14.478 14.8873 14.1753 15.5684L13.6294 16.7967C13.335 17.4591 13.4221 18.229 13.8571 18.809L14.1853 19.2467C14.7373 19.5475 15.4157 19.5212 15.9456 19.1679L16.0495 19.0987C17.2114 18.3241 18.6993 18.2315 19.9483 18.856L21.1059 19.4348C21.669 19.7163 22.3317 19.7163 22.8947 19.4348L24.0523 18.856C25.3013 18.2315 26.7892 18.3241 27.9512 19.0987L28.055 19.1679ZM23.2962 27.4083L23.0802 30H20.9205L20.7045 27.4083C20.6413 26.6502 21.2396 26 22.0003 26C22.7611 26 23.3593 26.6502 23.2962 27.4083Z" fill="#F9F9F9"/>
</svg>
