<svg width="22" height="21" viewBox="0 0 22 21" fill="none" xmlns="http://www.w3.org/2000/svg">
<path d="M18.9814 3.24408C19.3394 3.56951 19.3394 4.09715 18.9814 4.42259L4.31471 17.7559C3.95673 18.0814 3.37632 18.0814 3.01834 17.7559C2.66036 17.4305 2.66036 16.9028 3.01834 16.5774L17.685 3.24408C18.043 2.91864 18.6234 2.91864 18.9814 3.24408Z" fill="#2D2D2D"/>
<path d="M14.4827 4.9767C13.4503 4.53469 12.2862 4.25 10.9998 4.25C8.30109 4.25 6.14039 5.50308 4.60482 6.83307C3.06571 8.16611 2.06703 9.64973 1.67171 10.2915C1.41264 10.7121 1.38178 11.2143 1.59444 11.6603C1.74295 11.9718 1.99552 12.4544 2.36777 13.0143C2.62962 13.4082 3.19314 13.5346 3.62642 13.2965C4.05971 13.0585 4.19869 12.5462 3.93684 12.1523C3.63743 11.7019 3.42967 11.3124 3.30365 11.0537C3.67559 10.4578 4.55646 9.17693 5.86943 8.03975C7.22561 6.86513 8.95572 5.91667 10.9998 5.91667C11.7351 5.91667 12.4297 6.03937 13.0808 6.25116L14.4827 4.9767Z" fill="#2D2D2D"/>
<path d="M16.2162 8.11491C17.4817 9.23288 18.3323 10.4709 18.696 11.0537C18.57 11.3124 18.3623 11.7019 18.0628 12.1523C17.801 12.5462 17.94 13.0585 18.3733 13.2965C18.8065 13.5346 19.3701 13.4082 19.6319 13.0143C20.0042 12.4544 20.2567 11.9718 20.4052 11.6603C20.6179 11.2143 20.587 10.7121 20.328 10.2915C19.9428 9.66625 18.985 8.24193 17.5126 6.93629L16.2162 8.11491Z" fill="#2D2D2D"/>
<path d="M10.9999 7.16667C11.333 7.16667 11.6578 7.19898 11.9708 7.26034L10.0844 8.97519C9.30205 9.2262 8.68201 9.78987 8.4059 10.5011L6.51956 12.216C6.45207 11.9315 6.41652 11.6362 6.41652 11.3333C6.41652 9.03215 8.46855 7.16667 10.9999 7.16667Z" fill="#2D2D2D"/>
<path d="M10.9999 13.8333C10.6782 13.8333 10.3695 13.7831 10.0826 13.6909L8.70665 14.9418C9.38114 15.2968 10.1644 15.5 10.9999 15.5C13.5312 15.5 15.5832 13.6345 15.5832 11.3333C15.5832 10.5738 15.3597 9.86177 14.9691 9.24859L13.5932 10.4995C13.6946 10.7603 13.7499 11.0409 13.7499 11.3333C13.7499 12.714 12.5186 13.8333 10.9999 13.8333Z" fill="#2D2D2D"/>
</svg>
