<svg width="19" height="20" viewBox="0 0 19 20" fill="none" xmlns="http://www.w3.org/2000/svg">
<g clip-path="url(#clip0_2653_24699)">
<path d="M18.174 10.2101C18.174 9.43122 18.1121 8.86285 17.9782 8.27344H9.27246V11.7889H14.3825C14.2796 12.6625 13.7232 13.9782 12.4869 14.8623L12.4695 14.98L15.2221 17.1585L15.4128 17.1779C17.1643 15.5254 18.174 13.094 18.174 10.2101Z" fill="#12362A"/>
<path d="M9.27238 19.4724C11.7759 19.4724 13.8776 18.6303 15.4128 17.1778L12.4868 14.8622C11.7038 15.4201 10.6529 15.8095 9.27238 15.8095C6.82036 15.8095 4.73924 14.1571 3.99738 11.873L3.88864 11.8825L1.02644 14.1454L0.989014 14.2517C2.51379 17.3462 5.64581 19.4724 9.27238 19.4724Z" fill="#12362A"/>
<path d="M3.9974 11.8731C3.80165 11.2837 3.68836 10.6521 3.68836 9.99955C3.68836 9.34693 3.80165 8.71543 3.9871 8.12602L3.98191 8.00049L1.08385 5.70117L0.989033 5.74725C0.360597 7.03136 0 8.47337 0 9.99955C0 11.5257 0.360597 12.9677 0.989033 14.2518L3.9974 11.8731Z" fill="#12362A"/>
<path d="M9.27238 4.19016C11.0135 4.19016 12.188 4.95851 12.8577 5.6006L15.4746 2.99029C13.8674 1.46411 11.7759 0.527344 9.27238 0.527344C5.64581 0.527344 2.51379 2.65346 0.989014 5.7479L3.98708 8.12667C4.73924 5.84267 6.82036 4.19016 9.27238 4.19016Z" fill="#12362A"/>
</g>
<defs>
<clipPath id="clip0_2653_24699">
<rect y="0.5" width="18.1739" height="19" rx="9.08696" fill="white"/>
</clipPath>
</defs>
</svg>
