<svg width="44" height="38" viewBox="0 0 44 38" fill="none" xmlns="http://www.w3.org/2000/svg">
<path d="M0.166016 19C0.166016 23.9728 2.14146 28.7419 5.65776 32.2583C9.17407 35.7746 13.9432 37.75 18.916 37.75C23.8952 37.75 28.666 35.7917 32.2493 32.3333L29.1243 29.2083C27.8123 30.5967 26.2294 31.7013 24.4736 32.4538C22.7178 33.2063 20.8263 33.5907 18.916 33.5833C5.91602 33.5833 -0.583984 17.875 8.60352 8.6875C17.791 -0.499999 33.4993 6.02083 33.4993 19H27.2493L35.5827 27.3333H35.791L43.916 19H37.666C37.666 14.0272 35.6906 9.25805 32.1743 5.74175C28.658 2.22544 23.8888 0.25 18.916 0.25C13.9432 0.25 9.17407 2.22544 5.65776 5.74175C2.14146 9.25805 0.166016 14.0272 0.166016 19Z" fill="#2D2D2D"/>
</svg>
