<svg width="24" height="24" viewBox="0 0 24 24" fill="none" xmlns="http://www.w3.org/2000/svg">
<g clip-path="url(#clip0_2469_30955)">
<path d="M14.916 6.95312H17.916C18.5726 6.95313 19.2228 7.08245 19.8294 7.33373C20.4361 7.585 20.9873 7.9533 21.4515 8.41759C21.9158 8.88188 22.2841 9.43308 22.5354 10.0397C22.7867 10.6463 22.916 11.2965 22.916 11.9531C22.916 12.6097 22.7867 13.2599 22.5354 13.8665C22.2841 14.4732 21.9158 15.0244 21.4515 15.4887C20.9873 15.953 20.4361 16.3212 19.8294 16.5725C19.2228 16.8238 18.5726 16.9531 17.916 16.9531H14.916M8.91602 16.9531H5.91602C5.25941 16.9531 4.60923 16.8238 4.0026 16.5725C3.39597 16.3212 2.84477 15.953 2.38048 15.4887C1.4428 14.551 0.916016 13.2792 0.916016 11.9531C0.916016 10.627 1.4428 9.35527 2.38048 8.41759C3.31816 7.47991 4.58993 6.95313 5.91602 6.95312H8.91602" stroke="white" stroke-width="2" stroke-linecap="round" stroke-linejoin="round"/>
<path d="M7.91602 11.9531H15.916" stroke="white" stroke-width="2" stroke-linecap="round" stroke-linejoin="round"/>
</g>
<defs>
<clipPath id="clip0_2469_30955">
<rect width="24" height="24" fill="white" transform="translate(-0.0839844 -0.046875)"/>
</clipPath>
</defs>
</svg>
