<svg width="40" height="30" viewBox="0 0 40 30" fill="none" xmlns="http://www.w3.org/2000/svg">
<path d="M27.3995 29.465C27.0419 29.465 26.699 29.3052 26.4462 29.0208C26.1933 28.7363 26.0513 28.3506 26.0513 27.9483C26.0513 27.5461 26.1933 27.1603 26.4462 26.8759C26.699 26.5915 27.0419 26.4317 27.3995 26.4317H33.2069C33.8378 26.4315 34.4593 26.2599 35.0187 25.9317C35.5781 25.6034 36.0588 25.1281 36.4199 24.5462C36.7811 23.9642 37.0121 23.2927 37.0932 22.5889C37.1743 21.885 37.1033 21.1695 36.886 20.5031C36.6688 19.8367 36.3118 19.2392 35.8453 18.7613C35.3789 18.2834 34.8168 17.9391 34.2068 17.7579C33.5968 17.5766 32.957 17.5637 32.3416 17.7202C31.7262 17.8766 31.1535 18.1979 30.6721 18.6567L30.678 18.6517C30.4037 18.8986 30.0546 19.0155 29.705 18.9776C29.3553 18.9396 29.0325 18.7497 28.8053 18.4483C28.5781 18.1469 28.4643 17.7577 28.4881 17.3634C28.5119 16.9691 28.6714 16.6008 28.9328 16.3367L28.9343 16.335C29.8215 15.4882 30.8925 14.9211 32.038 14.6917L32.078 14.685C32.0636 12.1835 31.3383 9.75272 30.0081 7.74809C28.6779 5.74346 26.8126 4.27007 24.6849 3.5433C22.5572 2.81654 20.2786 2.87452 18.1823 3.70876C16.086 4.543 14.2818 6.10976 13.0335 8.18L13.0098 8.22167C14.0293 8.62941 14.9807 9.22658 15.8246 9.98833L15.8054 9.97167C16.0252 10.1669 16.1856 10.4343 16.2643 10.7367C16.343 11.0391 16.3361 11.3615 16.2446 11.6593C16.1531 11.9571 15.9816 12.2155 15.7537 12.3987C15.5258 12.5819 15.2529 12.6808 14.9728 12.6817C14.6615 12.6824 14.3597 12.561 14.1195 12.3383L14.1224 12.34C12.8875 11.2147 11.3457 10.6026 9.7565 10.6067H9.73576C7.87099 10.6067 6.08408 11.44 4.76549 12.9235C3.4469 14.4069 2.70613 16.4188 2.70613 18.5167C2.70613 20.6145 3.4469 22.6265 4.76549 24.1099C6.08408 25.5933 7.87247 26.4267 9.73724 26.4267H12.838C13.1955 26.4267 13.5384 26.5865 13.7913 26.8709C14.0441 27.1553 14.1861 27.5411 14.1861 27.9433C14.1861 28.3456 14.0441 28.7313 13.7913 29.0158C13.5384 29.3002 13.1955 29.46 12.838 29.46H9.73279C7.15253 29.46 4.67795 28.3069 2.85343 26.2543C1.02891 24.2017 0.00390625 21.4178 0.00390625 18.515C0.00390625 15.6122 1.02891 12.8283 2.85343 10.7757C4.67795 8.72313 7.15253 7.57 9.73279 7.57C9.88391 7.57 10.0321 7.58333 10.1846 7.59167C12.4706 3.03 16.7491 0 21.6558 0C25.1362 0.00044183 28.474 1.55595 30.9352 4.32447C33.3964 7.09299 34.7794 10.8478 34.7802 14.7633V14.7933C37.6958 15.6167 39.8217 18.5383 39.8217 22.02C39.8213 23.9931 39.1244 25.8852 37.8842 27.2804C36.6441 28.6756 34.9622 29.4596 33.2084 29.46L27.3995 29.465ZM18.5609 27.9483V20.97L17.0365 22.6867C16.7835 22.9711 16.4403 23.1308 16.0826 23.1307C15.7249 23.1305 15.3819 22.9705 15.1291 22.6858C14.8763 22.4012 14.7343 22.0152 14.7344 21.6127C14.7346 21.2103 14.8768 20.8244 15.1298 20.54L18.9565 16.2333C19.0408 16.141 19.1354 16.0615 19.238 15.9967L19.2454 15.9933C19.2706 15.9767 19.2958 15.9633 19.3209 15.95C19.4173 15.8918 19.5199 15.8475 19.6261 15.8183L19.635 15.8167H19.6498C19.7646 15.7931 19.8817 15.7869 19.998 15.7983H19.9935H20.0084C20.0335 15.7983 20.0587 15.8017 20.0824 15.8083H20.0809C20.2083 15.825 20.3239 15.8583 20.4335 15.91L20.4246 15.9067C20.4978 15.9421 20.5682 15.9845 20.635 16.0333L20.6306 16.03C20.6513 16.0433 20.6676 16.06 20.6869 16.0733C20.7377 16.1143 20.7862 16.1588 20.8321 16.2067L20.8646 16.2367L24.6943 20.5433C24.8196 20.6842 24.919 20.8514 24.9868 21.0355C25.0547 21.2195 25.0896 21.4168 25.0897 21.6161C25.0898 21.8153 25.0549 22.0127 24.9872 22.1968C24.9195 22.3809 24.8202 22.5482 24.695 22.6892C24.5698 22.8301 24.4212 22.9419 24.2576 23.0183C24.094 23.0946 23.9186 23.1339 23.7415 23.134C23.5643 23.1341 23.3889 23.0949 23.2253 23.0187C23.0616 22.9425 22.9129 22.8308 22.7876 22.69L21.2617 20.9733V27.9567C21.2617 28.3589 21.1196 28.7447 20.8668 29.0291C20.614 29.3135 20.2711 29.4733 19.9135 29.4733C19.556 29.4733 19.2131 29.3135 18.9603 29.0291C18.7074 28.7447 18.5654 28.3589 18.5654 27.9567L18.5609 27.9483Z" fill="#4ECB71"/>
</svg>
