<svg width="136" height="93" viewBox="0 0 136 93" fill="none" xmlns="http://www.w3.org/2000/svg">
<path d="M21.625 0.5H114.25C119.919 0.5 125.356 2.02767 129.364 4.74695C133.373 7.46623 135.625 11.1544 135.625 15V77.8333C135.625 81.679 133.373 85.3671 129.364 88.0864C125.356 90.8057 119.919 92.3333 114.25 92.3333H21.625C15.956 92.3333 10.5192 90.8057 6.51059 88.0864C2.502 85.3671 0.25 81.679 0.25 77.8333V15C0.25 11.1544 2.502 7.46623 6.51059 4.74695C10.5192 2.02767 15.956 0.5 21.625 0.5ZM21.625 5.33333C17.8457 5.33333 14.2211 6.35178 11.5487 8.16463C8.87633 9.97748 7.375 12.4362 7.375 15V71.0183L37.9412 50.235L55.7537 62.3183L91.3787 38.1517L128.5 63.3333V15C128.5 12.4362 126.999 9.97748 124.326 8.16463C121.654 6.35178 118.029 5.33333 114.25 5.33333H21.625ZM55.7537 69.1817L37.9412 57.0983L7.375 77.8333C7.375 80.3971 8.87633 82.8558 11.5487 84.6687C14.2211 86.4815 17.8457 87.5 21.625 87.5H114.25C118.029 87.5 121.654 86.4815 124.326 84.6687C126.999 82.8558 128.5 80.3971 128.5 77.8333V70.1483L91.3787 45.015L55.7537 69.1817ZM39.4375 15C44.1617 15 48.6923 16.2731 52.0328 18.5391C55.3733 20.8052 57.25 23.8786 57.25 27.0833C57.25 30.288 55.3733 33.3615 52.0328 35.6275C48.6923 37.8936 44.1617 39.1667 39.4375 39.1667C34.7133 39.1667 30.1827 37.8936 26.8422 35.6275C23.5017 33.3615 21.625 30.288 21.625 27.0833C21.625 23.8786 23.5017 20.8052 26.8422 18.5391C30.1827 16.2731 34.7133 15 39.4375 15ZM39.4375 19.8333C36.603 19.8333 33.8846 20.5972 31.8803 21.9568C29.876 23.3164 28.75 25.1605 28.75 27.0833C28.75 29.0062 29.876 30.8502 31.8803 32.2099C33.8846 33.5695 36.603 34.3333 39.4375 34.3333C42.272 34.3333 44.9904 33.5695 46.9947 32.2099C48.999 30.8502 50.125 29.0062 50.125 27.0833C50.125 25.1605 48.999 23.3164 46.9947 21.9568C44.9904 20.5972 42.272 19.8333 39.4375 19.8333Z" fill="#555555"/>
</svg>
