<svg width="25" height="24" viewBox="0 0 25 24" fill="none" xmlns="http://www.w3.org/2000/svg">
<path d="M12.4997 22C18.0225 22 22.4997 17.5228 22.4997 12C22.4997 6.47715 18.0225 2 12.4997 2C6.97684 2 2.49969 6.47715 2.49969 12C2.49969 13.3789 2.77876 14.6926 3.28351 15.8877C3.56247 16.5481 3.70195 16.8784 3.71922 17.128C3.73649 17.3776 3.66303 17.6521 3.51611 18.2012L2.49969 22L6.29846 20.9836C6.84757 20.8367 7.12213 20.7632 7.37171 20.7805C7.6213 20.7977 7.95155 20.9372 8.61205 21.2162C9.80715 21.7209 11.1208 22 12.4997 22Z" stroke="#12362A" stroke-width="1.5" stroke-linejoin="round"/>
<path d="M9.08784 12.3773L9.95879 11.2956C10.3259 10.8397 10.7796 10.4153 10.8152 9.80826C10.8241 9.65494 10.7163 8.96657 10.5005 7.58986C10.4157 7.04881 9.91055 7 9.47301 7C8.90283 7 8.61774 7 8.33464 7.12931C7.97683 7.29275 7.60948 7.75231 7.52886 8.13733C7.46508 8.44196 7.51249 8.65187 7.60729 9.07169C8.00993 10.8548 8.95451 12.6158 10.4192 14.0805C11.8839 15.5452 13.6449 16.4898 15.428 16.8924C15.8478 16.9872 16.0577 17.0346 16.3624 16.9708C16.7474 16.8902 17.2069 16.5229 17.3704 16.165C17.4997 15.8819 17.4997 15.5969 17.4997 15.0267C17.4997 14.5891 17.4509 14.084 16.9098 13.9992C15.5331 13.7834 14.8448 13.6756 14.6914 13.6845C14.0844 13.7201 13.66 14.1738 13.2041 14.5409L12.1224 15.4118" stroke="#12362A" stroke-width="1.5"/>
</svg>
